<svg xmlns="http://www.w3.org/2000/svg" data-name="Layer 1" viewBox="0 0 64 64" id="coffee-beans"><path fill="#5e3216" d="M31.81,33.59c1-.85,2.49-2.23,2.92-2.5a13.61,13.61,0,0,1,4.61-1.89c2.57-.51,4.94,0,6.5,1.55C49,33.94,47.72,40.41,43,45.2s-11.12,6.08-14.26,2.89a6.81,6.81,0,0,1-1.68-5.64Z"></path><path fill="#5e3216" d="M38.31,31.45l-1.4,1.2a4,4,0,0,1-6.23-1.24L29,28.11h0A12.9,12.9,0,0,1,28,23c0-3.8,1.5-7.06,3.66-8.55a4.56,4.56,0,0,1,2.62-.86c3.46,0,6.27,4.21,6.27,9.41,0,1.28-.16,3.22-.31,4.73A5.63,5.63,0,0,1,38.31,31.45Z"></path><ellipse cx="21.79" cy="32.01" fill="#5e3216" rx="8.12" ry="12.18" transform="rotate(-44.04 21.78 32.012)"></ellipse><ellipse cx="52.28" cy="15.59" fill="#895b2e" rx="5" ry="3" transform="rotate(-81.4 52.4 15.475)"></ellipse><ellipse cx="19" cy="9" fill="#895b2e" rx="5" ry="3" transform="rotate(-80.54 18.999 8.999)"></ellipse><ellipse cx="24" cy="56" fill="#895b2e" rx="5" ry="3" transform="rotate(-80.54 24.002 55.998)"></ellipse><ellipse cx="9" cy="44" fill="#895b2e" rx="3" ry="5" transform="rotate(-15.95 9.013 43.985)"></ellipse><ellipse cx="52" cy="48" fill="#895b2e" rx="5" ry="3" transform="rotate(-80.54 51.995 48.002)"></ellipse><path d="M15.37 38.49c3.05 3.1 6.93 4.94 10.38 4.94h.19a7.44 7.44 0 002 5.26 7.25 7.25 0 005.3 2h0c3.45 0 7.33-1.84 10.39-4.93C48.73 40.62 50 33.5 46.48 29.93a7.38 7.38 0 00-5.8-2A14.12 14.12 0 0041.55 23c0-5.84-3.19-10.41-7.27-10.41a5.59 5.59 0 00-3.19 1C28.57 15.37 27 19 27 23c0 .5 0 1 .07 1.48a14.76 14.76 0 00-9.25-3.89 7.23 7.23 0 00-5.3 2.05C9 26.21 10.27 33.33 15.37 38.49zm10.38 2.94c-2.92 0-6.27-1.62-9-4.34-2.92-3-4.45-6.58-4.29-9.48l4.59.28a4.9 4.9 0 013.49 2.87l1.9 4.43A9.38 9.38 0 0027.12 40a1.24 1.24 0 00.38.09l1.89.09A5.41 5.41 0 0125.75 41.43zm17.51-6.69l.27-4.41a4.54 4.54 0 011.53 1c2.76 2.8 1.48 8.65-2.85 13.05-2.69 2.71-6 4.33-9 4.33h0a6.2 6.2 0 01-2.16-.36l.14-3a7.29 7.29 0 013.64-3.54l4.38-1.92a7 7 0 004-5.06S43.26 34.79 43.26 34.74zm-1.71-4.83l-.28 4.64a4.93 4.93 0 01-2.83 3.55L34.06 40a9.38 9.38 0 00-4.74 4.71.78.78 0 00-.09.37L29.14 47a5.67 5.67 0 01-1.2-3.84 6.68 6.68 0 003.11-1.78c1.81-1.82 2.35-4.58 1.77-7.52l.12-.11c.74-.65 2-1.74 2.26-1.92a12.61 12.61 0 014.27-1.77A8.37 8.37 0 0141.55 29.91zM34.28 14.59c2.86 0 5.27 3.85 5.27 8.41a11.59 11.59 0 01-1.22 5.29 14.77 14.77 0 00-3.47 1.42l-.26-.29a5.8 5.8 0 01.1-3.92l1.4-3.6a5.83 5.83 0 00-.58-5.33l-.08-.11-1.6-1.83A3.13 3.13 0 0134.28 14.59zM32 15.51l1.94 2.22a3.83 3.83 0 01.35 3.45l-1.4 3.59a7.8 7.8 0 00-.06 5.51.94.94 0 00.2.33l.23.25-1 .86a17.14 17.14 0 00-2.41-4.33A12.11 12.11 0 0129 23C29 19.83 30.15 17 32 15.51zM13.94 24a5.3 5.3 0 013.88-1.45c2.93 0 6.27 1.62 9 4.35A16.75 16.75 0 0128 28.37l.05.14.05 0c2.57 3.31 3.55 7.09 2.57 9.74L27.8 38.1a7.36 7.36 0 01-3.48-3.69L22.42 30a6.86 6.86 0 00-5-4l-4.49-.29A4.86 4.86 0 0113.94 24zM55.81 12a3.24 3.24 0 00-5.89-.87A8 8 0 0048.32 15c-.49 3.33.86 6.2 3.08 6.52a2.73 2.73 0 00.41 0A3.75 3.75 0 0054.63 20a8 8 0 001.6-3.86A8 8 0 0055.81 12zm-4 2.6l-.91 1.72a4.71 4.71 0 00-.5 1.51 6.33 6.33 0 01-.11-2.55 6.12 6.12 0 011.14-2.85l.47.82A1.68 1.68 0 0151.82 14.62zm2.43 1.26a5.93 5.93 0 01-1.17 2.88 2.42 2.42 0 01-.5.47l-.21-.35a2.81 2.81 0 01.31-1.61l.91-1.72a3.65 3.65 0 00.14-3.11S53.5 12 53.5 12a3 3 0 01.47.76A6 6 0 0154.25 15.88zM18 14.92a3.73 3.73 0 00.46 0 3.74 3.74 0 002.8-1.48A8 8 0 0023 9.66a8.09 8.09 0 00-.35-4.17A3.58 3.58 0 0020 3.08a3.57 3.57 0 00-3.26 1.44 8 8 0 00-1.68 3.82 8.09 8.09 0 00.35 4.17A3.58 3.58 0 0018 14.92zm1.36-4.23L20.31 9a3.65 3.65 0 00.21-3.11l-.23-.43a2.63 2.63 0 01.45.78A5.94 5.94 0 0121 9.33h0a6 6 0 01-1.22 2.86 3 3 0 01-.51.46L19 12.3A2.73 2.73 0 0119.37 10.69zM17 8.67a6.1 6.1 0 011.19-2.82l.46.82A1.72 1.72 0 0118.57 8l-.95 1.7a4.75 4.75 0 00-.52 1.51A6.42 6.42 0 0117 8.67zM25 50.08a3.57 3.57 0 00-3.26 1.44 8 8 0 00-1.68 3.82 8.09 8.09 0 00.35 4.17A3.58 3.58 0 0023 61.92a3.73 3.73 0 00.46 0 3.74 3.74 0 002.8-1.48A8 8 0 0028 56.66a8.09 8.09 0 00-.35-4.17A3.58 3.58 0 0025 50.08zM23.57 55l-.95 1.7a4.75 4.75 0 00-.52 1.51A6.42 6.42 0 0122 55.67a6.1 6.1 0 011.19-2.82l.46.82A1.72 1.72 0 0123.57 55zM26 56.33h0a6 6 0 01-1.22 2.86 3 3 0 01-.51.46L24 59.3a2.73 2.73 0 01.33-1.61l.94-1.7a3.65 3.65 0 00.21-3.11l-.23-.43a2.63 2.63 0 01.45.78A5.94 5.94 0 0126 56.33zM7.35 38.23c-2.15.62-3.12 3.63-2.2 6.87C6 48 7.94 49.88 9.87 49.88a3 3 0 00.78-.11c2.15-.62 3.12-3.63 2.2-6.87h0C11.92 39.67 9.51 37.61 7.35 38.23zm3.57 5.22a5.16 5.16 0 01-.14 3.74L10.45 47a2.79 2.79 0 01-.39-1.59l.12-1.94A3.66 3.66 0 009 40.53l-.36-.27A5 5 0 0110.92 43.45zM8.23 46.82a6.36 6.36 0 01-1.15-2.27A6 6 0 017 41.49l.76.55a1.63 1.63 0 01.48 1.26l-.13 2A4.89 4.89 0 008.23 46.82zM56 48.66a8.09 8.09 0 00-.35-4.17 3.24 3.24 0 00-5.87-1 8 8 0 00-1.68 3.82 8.09 8.09 0 00.35 4.17A3.58 3.58 0 0051 53.92a3.29 3.29 0 003.26-1.44A8 8 0 0056 48.66zM51.57 47l-1 1.7a4.75 4.75 0 00-.52 1.51A6.42 6.42 0 0150 47.67a6.1 6.1 0 011.19-2.82l.46.82A1.72 1.72 0 0151.57 47zM54 48.33h0a6 6 0 01-1.22 2.86 3 3 0 01-.51.46L52 51.3a2.73 2.73 0 01.33-1.61l.94-1.7a3.65 3.65 0 00.21-3.11l-.23-.43a2.63 2.63 0 01.45.78A5.94 5.94 0 0154 48.33z"></path></svg>